<svg xmlns="http://www.w3.org/2000/svg" viewBox="-0.5 0 33.5 59"><path d="M32.7582 0C33.2958 1.02867 32.859 9.66515 32.2101 11.4064C30.9716 14.7304 28.8017 15.5168 25.9729 17.0708C28.2831 16.6384 29.2689 16.406 31.4513 15.5348C31.4216 15.6628 31.3906 15.7906 31.3583 15.9181C28.2497 28.1434 21.2162 29.7907 11.8527 35.4419C18.5546 33.4052 19.4304 33.7151 25.4819 29.4301C23.6809 35.2625 18.1409 41.9413 12.5976 44.4046C7.5273 46.658 4.26921 48.3392 2.4427 53.9549C2.00498 55.3008 1.78017 57.952 1.00138 59L0.74956 58.9729C0.488343 58.3617 0.646548 56.9074 0.729091 56.2133C1.61995 48.715 4.85607 41.5587 8.27857 34.9645C11.4452 29.5452 15.3836 24.5915 19.4787 19.8629C20.7633 18.3802 22.2297 16.7121 23.3163 15.085C12.3131 25.1112 6.39955 32.0322 1.02303 45.9876C-0.18475 40.5818 -0.456873 36.6135 0.938301 31.1552C3.10102 22.9814 8.39131 16.0071 15.6469 11.7665C15.6747 13.4793 15.6858 14.5632 15.9361 16.2751C16.332 14.6541 17.0937 11.5351 18.203 10.3163C20.4947 7.79863 25.3656 5.07036 28.3038 3.14136C29.8157 2.13402 31.3011 1.0864 32.7582 0Z"/></svg>
